<?xml version="1.0" encoding="UTF-8"?>
<svg id="Capa_2" data-name="Capa 2" xmlns="http://www.w3.org/2000/svg" xmlns:xlink="http://www.w3.org/1999/xlink" viewBox="0 0 63 61">
  <defs>
    <style>
      .cls-1 {
        fill: url(#Dégradé_sans_nom_18);
      }

      .cls-2 {
        fill: url(#Eau_7-3);
      }

      .cls-3 {
        fill: url(#Eau_7);
      }

      .cls-4 {
        fill: url(#Eau_7-2);
      }
    </style>
    <linearGradient id="Dégradé_sans_nom_18" data-name="Dégradé sans nom 18" x1="5.31" y1="1.79" x2="57.69" y2="64.21" gradientUnits="userSpaceOnUse">
      <stop offset="0" stop-color="#4d4d4d"/>
      <stop offset="1" stop-color="#1a1a1a"/>
    </linearGradient>
    <linearGradient id="Eau_7" data-name="Eau 7" x1="17.39" y1="-.88" x2="23.35" y2="6.22" gradientUnits="userSpaceOnUse">
      <stop offset="0" stop-color="#69afe0"/>
      <stop offset=".1" stop-color="#5facde"/>
      <stop offset=".26" stop-color="#46a6db"/>
      <stop offset=".46" stop-color="#1d9bd6"/>
      <stop offset=".58" stop-color="#0094d3"/>
      <stop offset="1" stop-color="#007fc3"/>
    </linearGradient>
    <linearGradient id="Eau_7-2" data-name="Eau 7" x1="4.39" y1="-.88" x2="10.35" y2="6.22" xlink:href="#Eau_7"/>
    <linearGradient id="Eau_7-3" data-name="Eau 7" x1="21.34" y1="26.56" x2="41.66" y2="50.77" xlink:href="#Eau_7"/>
  </defs>
  <g id="Calque_187_-_copie" data-name="Calque 187 - copie">
    <g id="Calque_4_-_copie" data-name="Calque 4 - copie">
      <g>
        <path class="cls-1" d="m60.67,5H2.34c-1.29,0-2.34,1.04-2.34,2.33v51.33c0,1.29,1.05,2.33,2.34,2.33h58.33c1.29,0,2.33-1.04,2.33-2.33V7.33c0-1.29-1.05-2.33-2.33-2.33Zm-.67,53H3V19h57v39Z"/>
        <path class="cls-3" d="m26,2.83c0-1.57-.97-2.83-2.53-2.83h-6.33c-1.57,0-2.13,1.27-2.13,2.83v1.17h11v-1.17Z"/>
        <path class="cls-4" d="m13,2.83c0-1.57-.97-2.83-2.53-2.83h-6.33c-1.57,0-2.13,1.27-2.13,2.83v1.17h11v-1.17Z"/>
        <path class="cls-2" d="m31.5,54.48c8.72,0,15.81-7.09,15.81-15.81s-7.09-15.81-15.81-15.81-15.81,7.09-15.81,15.81,7.09,15.81,15.81,15.81Zm2.55-2.7c1.1-1.22,2.42-2.92,3.54-4.98,1.1.64,2,1.35,2.67,1.94-1.74,1.51-3.86,2.58-6.21,3.04Zm7.28-4.17c-.75-.67-1.79-1.55-3.07-2.28.75-1.62,1.33-3.11,1.58-5.43h4.96c-.31,3.25-1.57,5.66-3.46,7.71Zm3.54-9.1h-4.92c0-.46.01-.25.01-.41,0-1.97-.36-3.87-1.1-5.75.98-.63,1.94-1.43,2.89-2.32,1.94,2.31,3.11,5.24,3.12,8.48Zm-4.12-9.49c-.82.77-1.65,1.44-2.49,1.99-.92-1.85-2.21-3.65-3.86-5.39,2.43.54,4.62,1.74,6.35,3.4Zm-8.53-3.59c1.86,2.03,3.8,4.15,4.86,6.33-1.59.84-3.47,1.29-4.86,1.36v-7.69Zm0,9.16c1.86-.06,3.63-.58,5.41-1.5.62,1.64.88,3.29.88,4.99,0,.16-.02-.04-.02.42h-6.26v-3.91Zm0,5.31h6.13c-.24,1.86-.71,3.36-1.37,4.79-1.41-.65-3.38-1.04-4.77-1.14v-3.65Zm0,5.12c1.39.1,2.92.53,4.15,1.09-1.36,2.48-3.22,4.42-4.15,5.56v-6.65Zm-9.45,3.73c.73-.66,1.47-1.22,2.22-1.71.91,1.59,2.1,3.14,3.56,4.65-2.18-.5-4.15-1.52-5.78-2.94Zm8.06,2.95c-1.86-1.74-3.35-3.55-4.4-5.4,1.44-.74,3.01-1.17,4.4-1.28v6.68Zm0-8.15c-1.86.11-3.5.49-5.15,1.34-.73-1.6-1.25-3.14-1.38-5h6.53v3.65Zm0-5.04h-6.56c.06-2.32.64-3.84,1.35-5.54,1.46.76,3.35,1.42,5.21,1.59v3.95Zm0-13v7.57c-1.86-.17-3.2-.72-4.5-1.41,1.41-2.77,3.11-4.94,4.5-6.17Zm-2.33.15c-1.15,1.31-2.52,3.1-3.62,5.26-1.08-.7-1.93-1.43-2.5-1.98,1.69-1.59,3.79-2.74,6.12-3.28Zm-7.14,4.3c.65.63,1.63,1.44,2.88,2.23-.81,1.91-1.38,4.01-1.44,6.32h-4.63c0-3.25,1.21-6.23,3.19-8.56Zm1.46,9.95c.13,2.32.63,3.9,1.49,5.74-.88.56-1.74,1.17-2.59,1.95-1.9-2.05-3.16-4.43-3.48-7.68h4.58Z"/>
      </g>
    </g>
  </g>
</svg>