<?xml version="1.0" encoding="UTF-8"?>
<svg id="Capa_2" data-name="Capa 2" xmlns="http://www.w3.org/2000/svg" xmlns:xlink="http://www.w3.org/1999/xlink" viewBox="0 0 70.6 63.22">
  <defs>
    <style>
      .cls-1 {
        fill: url(#Dégradé_sans_nom_18);
      }

      .cls-1, .cls-2, .cls-3 {
        fill-rule: evenodd;
      }

      .cls-2 {
        fill: url(#Dégradé_sans_nom_18-2);
      }

      .cls-3 {
        fill: url(#Eau_7);
      }
    </style>
    <linearGradient id="Eau_7" data-name="Eau 7" x1="23.82" y1="23.39" x2="70.6" y2="23.39" gradientUnits="userSpaceOnUse">
      <stop offset="0" stop-color="#69afe0"/>
      <stop offset=".1" stop-color="#5facde"/>
      <stop offset=".26" stop-color="#46a6db"/>
      <stop offset=".46" stop-color="#1d9bd6"/>
      <stop offset=".58" stop-color="#0094d3"/>
      <stop offset="1" stop-color="#007fc3"/>
    </linearGradient>
    <linearGradient id="Dégradé_sans_nom_18" data-name="Dégradé sans nom 18" x1="5.22" y1="24.56" x2="23.58" y2="46.45" gradientUnits="userSpaceOnUse">
      <stop offset="0" stop-color="#4d4d4d"/>
      <stop offset="1" stop-color="#1a1a1a"/>
    </linearGradient>
    <linearGradient id="Dégradé_sans_nom_18-2" data-name="Dégradé sans nom 18" x1="26.18" y1="44.13" x2="39.92" y2="60.51" xlink:href="#Dégradé_sans_nom_18"/>
  </defs>
  <g id="Calque_187_-_copie" data-name="Calque 187 - copie">
    <g id="Calque_4_-_copie" data-name="Calque 4 - copie">
      <g>
        <path class="cls-3" d="m70.57,22.04c-.05-1.08-.63-1.73-1.67-1.99-.15-.04-.31-.04-.46-.07-1.34-.23-2.67-.47-4.06-.71-.5-1.31-1-2.62-1.51-3.94.23-.31.43-.61.65-.9.59-.74,1.15-1.49,1.78-2.19,1.22-1.35,1.17-2.51-.04-3.7-.33-.33-.62-.7-.94-1.05-1.33-1.47-1.98-1.56-3.65-.53-1.11.68-2.21,1.38-3.39,2.12-1.79-1.24-3.75-2.05-5.83-2.69-.11-.56-.21-1.07-.3-1.58-.17-.98-.32-1.96-.5-2.94-.19-1.07-.87-1.69-1.9-1.79-.98-.09-1.99-.1-2.97,0-1.02.1-1.73.69-1.91,1.78-.09.57-.15,1.14-.3,1.7-.25.95-.15,1.98-.56,2.75-1.73.72-3.31,1.38-4.95,2.07-.3-.2-.65-.42-.99-.66-.86-.6-1.69-1.24-2.56-1.81-1.07-.7-1.92-.63-2.84.21-.62.56-1.21,1.16-1.77,1.78-.87.95-.92,1.74-.21,2.83.54.83,1.16,1.62,1.71,2.44.29.42.72.77.74,1.18-.72,1.73-1.38,3.31-2.05,4.93-.25.05-.5.11-.76.15-1.24.21-2.48.4-3.71.64-1.07.21-1.69.88-1.75,1.92-.05.99-.05,1.99,0,2.98.05.93.6,1.54,1.49,1.81.35.11.72.12,1.07.2,1.26.3,2.59.29,3.74.76.53,1.4,1.03,2.71,1.54,4.06-.43.54-.85,1.07-1.28,1.6-.52.65-1.07,1.29-1.56,1.96-.62.86-.62,1.8.02,2.61.58.74,1.21,1.44,1.88,2.11.8.79,1.58.88,2.57.36.42-.22.81-.49,1.21-.73.93-.58,1.86-1.15,2.75-1.71,1,.52,1.91,1.04,2.86,1.46.95.42,1.94.74,2.9,1.1.09.43.16.79.23,1.14.2,1.13.36,2.27.6,3.4.24,1.11.84,1.63,1.95,1.67.99.04,1.99.03,2.98-.01.88-.04,1.46-.54,1.72-1.36.14-.45.18-.92.29-1.38.27-1.16.26-2.39.65-3.43,1.69-.7,3.28-1.35,4.92-2.03.44.3.92.62,1.39.95.77.54,1.52,1.11,2.31,1.63,1.11.72,1.88.67,2.83-.19.62-.56,1.21-1.16,1.78-1.77.83-.9.9-1.81.22-2.85-.64-.96-1.34-1.87-1.99-2.82-.23-.33-.42-.7-.56-.94.7-1.67,1.34-3.21,2.07-4.94.63-.12,1.3-.24,1.96-.36.77-.13,1.55-.23,2.32-.38,1.23-.25,1.82-.93,1.87-2.15.03-.89.04-1.78,0-2.67Zm-23.3,10.17c-5.5-.03-8.86-4.61-8.74-8.8-.05-4.97,4.23-8.77,8.79-8.76,3.93,0,8.74,3.08,8.75,8.82,0,4.9-3.89,8.78-8.8,8.75Z"/>
        <path class="cls-1" d="m21.13,46.42c-.11-.61-.22-1.22-.32-1.79.86-.81,1.65-1.56,2.47-2.33.57.13,1.13.25,1.68.39.35.08.7.2,1.06.26.69.12,1.24-.1,1.55-.77.2-.43.41-.85.58-1.29.35-.94.2-1.4-.65-2-.68-.48-1.38-.93-2.13-1.42.04-.9.09-1.77.13-2.63.39-.23.69-.42,1.01-.6.41-.22.84-.42,1.25-.65,1.02-.57,1.18-.94.87-2.03-.12-.4-.24-.8-.39-1.19-.33-.83-.64-1.03-1.56-.97-.57.04-1.14.15-1.71.22-.36.04-.71.06-1.05.09-.43-.54-.8-1.05-1.21-1.51-.45-.5-.94-.97-1.47-1.5.12-.55.22-1.11.38-1.65.58-2.05.53-2.34-1.7-3.23-1.06-.42-1.45-.58-2.12.37-.48.68-.78.8-1.33,1.68h-3.54c-.48-1-.88-1.24-1.34-1.94-.52-.79-.94-.78-1.87-.48-.45.15-.89.37-1.32.57-.76.36-.98.82-.86,1.68.05.36.17.73.23,1.09.1.55.18,1.12.26,1.59-.86.81-1.61,1.52-2.44,2.3-.47-.1-.97-.21-1.48-.32-.41-.1-.81-.22-1.22-.3-.83-.17-1.28.04-1.67.79-.26.51-.49,1.04-.67,1.59-.19.61-.01,1.14.52,1.51.51.36.79.68,1.3,1.04.29.2.46.45.46.61v2.64c0,.19-.29.38-.56.53-.46.25-.8.47-1.26.72-1.12.61-1.19.95-.86,2.14.01.05.06.1.08.15.58,1.97.89,2.15,2.92,1.85.61-.09,1.22-.35,1.79-.16.89.98,1.73,1.9,2.61,2.88-.06.32-.1.68-.18,1.03-.13.56-.31,1.11-.43,1.67-.15.75.04,1.22.7,1.57.5.27,1.05.47,1.57.7.62.28,1.13.09,1.54-.38.3-.36.53-1.11.8-1.49.33-.46.53-1.58.95-1.58h3.29c.5,1,.97,1.98,1.48,2.76.47.72.92,1.04,1.74.79.5-.15.99-.26,1.46-.48.72-.34.91-.64.83-1.46-.03-.36-.13-.68-.2-1.04Zm-6.67-5.37c-3.04.01-5.64-2.54-5.56-5.58.09-3.61,3.02-5.48,5.47-5.51,2.83-.03,5.58,2.18,5.64,5.5.06,3.04-2.48,5.58-5.55,5.59Z"/>
        <path class="cls-2" d="m43.86,50.51c-.14-.8-.42-1.09-1.23-1.16-.62-.06-1.24-.06-1.84-.09-.57-.89-1.09-1.72-1.64-2.59.24-.58.5-1.15.72-1.73.28-.73.2-1.02-.41-1.48-.25-.19-.51-.36-.78-.52-.6-.35-.91-.33-1.41.13-.49.46-.95.95-1.44,1.45-.79-.14-1.56-.28-2.47-.45-.22-.53-.41-1.01-.62-1.49-.44-1.03-.65-1.14-1.81-.93-.15.03-.31.04-.46.08-.71.18-.97.48-.99,1.2-.02.67,0,1.34,0,1.96-.76.5-1.41.92-2.07,1.36-.42-.17-.8-.32-1.18-.48-1.45-.61-1.88-.46-2.6.96-.29.57-.26.96.18,1.42.46.49.96.94,1.46,1.43-.16.71-.31,1.36-.46,2-.52.18-.96.33-1.41.48-1.21.42-1.32.57-1.19,1.81.01.1.02.21.03.31.14.89.42,1.17,1.32,1.24.62.05,1.24.06,1.8.08.57.89,1.07,1.67,1.6,2.49-.16.38-.31.76-.47,1.14-.63,1.47-.55,1.7.79,2.5.05.03.09.06.13.09.65.36.96.34,1.53-.22.44-.43.84-.91,1.26-1.37.92.18,1.72.34,2.53.5.18.44.34.82.49,1.21.6,1.48.8,1.58,2.34,1.2.82-.2,1.05-.48,1.07-1.29.01-.67,0-1.34,0-1.96.74-.49,1.39-.92,2.05-1.36.36.15.71.27,1.03.43,1.71.83,1.88.46,2.72-.91.35-.57.29-.92-.17-1.41-.46-.49-.96-.95-1.46-1.44.18-.69.34-1.33.5-1.93.66-.21,1.21-.37,1.75-.57.73-.27.89-.52.86-1.29-.01-.26-.03-.52-.08-.78Zm-10.85,5.95c-2.24-.03-4.12-1.91-4.06-4.14.07-2.71,2.34-4.17,4.27-4.08,2.24.11,4.07,2,3.99,4.22-.08,2.25-1.95,4.03-4.2,4Z"/>
      </g>
    </g>
  </g>
</svg>