<?xml version="1.0" encoding="UTF-8"?>
<svg id="Capa_2" data-name="Capa 2" xmlns="http://www.w3.org/2000/svg" xmlns:xlink="http://www.w3.org/1999/xlink" viewBox="0 0 53.02 64.94">
  <defs>
    <style>
      .cls-1 {
        fill: url(#Dégradé_sans_nom_18);
      }

      .cls-1, .cls-2, .cls-3, .cls-4, .cls-5, .cls-6, .cls-7 {
        fill-rule: evenodd;
      }

      .cls-2 {
        fill: url(#Eau_7-4);
      }

      .cls-3 {
        fill: url(#Eau_7-3);
      }

      .cls-4 {
        fill: url(#Eau_7);
      }

      .cls-5 {
        fill: url(#Eau_7-5);
      }

      .cls-6 {
        fill: url(#Eau_7-2);
      }

      .cls-7 {
        fill: url(#Eau_7-6);
      }
    </style>
    <linearGradient id="Dégradé_sans_nom_18" data-name="Dégradé sans nom 18" x1="2.09" y1="3.38" x2="52.81" y2="63.82" gradientUnits="userSpaceOnUse">
      <stop offset="0" stop-color="#4d4d4d"/>
      <stop offset="1" stop-color="#1a1a1a"/>
    </linearGradient>
    <linearGradient id="Eau_7" data-name="Eau 7" x1="18.92" y1="8.1" x2="30.22" y2="21.56" gradientUnits="userSpaceOnUse">
      <stop offset="0" stop-color="#69afe0"/>
      <stop offset=".1" stop-color="#5facde"/>
      <stop offset=".26" stop-color="#46a6db"/>
      <stop offset=".46" stop-color="#1d9bd6"/>
      <stop offset=".58" stop-color="#0094d3"/>
      <stop offset="1" stop-color="#007fc3"/>
    </linearGradient>
    <linearGradient id="Eau_7-2" data-name="Eau 7" x1="14" y1="11.41" x2="28.12" y2="28.25" xlink:href="#Eau_7"/>
    <linearGradient id="Eau_7-3" data-name="Eau 7" x1="14" y1="16.41" x2="28.12" y2="33.25" xlink:href="#Eau_7"/>
    <linearGradient id="Eau_7-4" data-name="Eau 7" x1="14" y1="21.41" x2="28.12" y2="38.25" xlink:href="#Eau_7"/>
    <linearGradient id="Eau_7-5" data-name="Eau 7" x1="11.88" y1="33.11" x2="23.15" y2="46.54" xlink:href="#Eau_7"/>
    <linearGradient id="Eau_7-6" data-name="Eau 7" x1="14" y1="26.41" x2="28.12" y2="43.25" xlink:href="#Eau_7"/>
  </defs>
  <g id="Calque_187_-_copie" data-name="Calque 187 - copie">
    <g id="Calque_4_-_copie" data-name="Calque 4 - copie">
      <g>
        <path class="cls-1" d="m53.01,7.41c0-1.58-.93-2.58-2.31-2.58h-7.91v-2.18C42.79,1.07,41.6,0,40.22,0,28.9,0,17.44,0,6.12,0L.05,6c0,8.03-.03,16.07-.03,24.1,0,9.15,0,18.29-.03,27.44,0,1.61,1.09,2.71,2.34,2.71,2.8,0,5.59,0,8.39,0,0,.66,0,1.32,0,1.97,0,1.61,1.1,2.71,2.35,2.71,12.54-.01,25.07-.01,37.61,0,1.27,0,2.34-1.08,2.34-2.65-.01-18.31,0-36.57,0-54.88ZM3.51,57.64c-.45,0-.68-.12-.71-.74v-26.81c0-7.42-.3-14.76-.3-22.18.14.02.05-.08.19-.08h2.11c1.55,0,2.99-1.26,2.99-2.81v-2.34s-.09-.09-.1-.14c10.44,0,20.83,0,31.27,0,.08,0,.14,0,.22,0,.61.03.87.35.89,1.05,0,.09,0,.19,0,.28,0,17.5,0,35,0,52.5,0,1.14-.18,1.32-1.16,1.32l-35.4-.06ZM50.8,8.54c0,17.5,0,35.01,0,52.51,0,1.14-.18,1.33-1.16,1.33-11.85.01-23.69,0-35.54,0-.16,0-.33-.02-.48-.06-.53-.14-.98-.3-1.01-.92,0-.15,0-.34,0-.49,0-.23.06-.43.06-.66,9,0,17.94,0,26.92,0,1.27,0,2.52-.65,2.52-2.22-.01-16.81.17-34.45.17-50.45,2.46,0,4.68.03,7.14.03.08,0,.41.02.49.02.62.03.88.14.9.85,0,.09,0-.03,0,.06Z"/>
        <path class="cls-4" d="m36.91,13.83H12.23c-.36,0-.64.55-.64,1s.29,1,.64,1h24.68c.36,0,.64-.55.64-1s-.29-1-.64-1Z"/>
        <path class="cls-6" d="m36.74,18.83H5.39c-.45,0-.82.55-.82,1s.37,1,.82,1h31.35c.45,0,.82-.55.82-1s-.37-1-.82-1Z"/>
        <path class="cls-3" d="m36.74,23.83H5.39c-.45,0-.82.55-.82,1s.37,1,.82,1h31.35c.45,0,.82-.55.82-1s-.37-1-.82-1Z"/>
        <path class="cls-2" d="m36.74,28.83H5.39c-.45,0-.82.55-.82,1s.37,1,.82,1h31.35c.45,0,.82-.55.82-1s-.37-1-.82-1Z"/>
        <path class="cls-5" d="m29.82,38.83H5.21c-.35,0-.64.55-.64,1s.29,1,.64,1h24.61c.35,0,.64-.55.64-1s-.29-1-.64-1Z"/>
        <path class="cls-7" d="m36.74,33.83H5.39c-.45,0-.82.55-.82,1s.37,1,.82,1h31.35c.45,0,.82-.55.82-1s-.37-1-.82-1Z"/>
      </g>
    </g>
  </g>
</svg>