<?xml version="1.0" encoding="UTF-8"?>
<svg id="Capa_2" data-name="Capa 2" xmlns="http://www.w3.org/2000/svg" xmlns:xlink="http://www.w3.org/1999/xlink" viewBox="0 0 63 61">
  <defs>
    <style>
      .cls-1 {
        fill: url(#Dégradé_sans_nom_18-3);
      }

      .cls-2 {
        fill: url(#Dégradé_sans_nom_18-2);
      }

      .cls-3 {
        fill: url(#Dégradé_sans_nom_18);
      }

      .cls-4 {
        fill: url(#Eau_7-3);
      }

      .cls-5 {
        fill: url(#Eau_7-5);
      }

      .cls-6 {
        fill: url(#Eau_7);
      }

      .cls-7 {
        fill: url(#Dégradé_sans_nom_18-4);
      }

      .cls-8 {
        fill: url(#Eau_7-4);
      }

      .cls-9 {
        fill: url(#Eau_7-2);
      }

      .cls-10 {
        fill: url(#Eau_7-6);
      }
    </style>
    <linearGradient id="Dégradé_sans_nom_18" data-name="Dégradé sans nom 18" x1="5.31" y1="1.79" x2="57.69" y2="64.21" gradientUnits="userSpaceOnUse">
      <stop offset="0" stop-color="#4d4d4d"/>
      <stop offset="1" stop-color="#1a1a1a"/>
    </linearGradient>
    <linearGradient id="Dégradé_sans_nom_18-2" data-name="Dégradé sans nom 18" x1="39.59" y1="43.56" x2="45.74" y2="50.89" xlink:href="#Dégradé_sans_nom_18"/>
    <linearGradient id="Dégradé_sans_nom_18-3" data-name="Dégradé sans nom 18" x1="19.06" y1="43.57" x2="25.2" y2="50.89" xlink:href="#Dégradé_sans_nom_18"/>
    <linearGradient id="Dégradé_sans_nom_18-4" data-name="Dégradé sans nom 18" x1="29.46" y1="43.56" x2="35.61" y2="50.89" xlink:href="#Dégradé_sans_nom_18"/>
    <linearGradient id="Eau_7" data-name="Eau 7" x1="18.47" y1="-.89" x2="24.4" y2="6.18" gradientUnits="userSpaceOnUse">
      <stop offset="0" stop-color="#69afe0"/>
      <stop offset=".1" stop-color="#5facde"/>
      <stop offset=".26" stop-color="#46a6db"/>
      <stop offset=".46" stop-color="#1d9bd6"/>
      <stop offset=".58" stop-color="#0094d3"/>
      <stop offset="1" stop-color="#007fc3"/>
    </linearGradient>
    <linearGradient id="Eau_7-2" data-name="Eau 7" x1="5.47" y1="-.89" x2="11.4" y2="6.18" xlink:href="#Eau_7"/>
    <linearGradient id="Eau_7-3" data-name="Eau 7" x1="8.66" y1="25.01" x2="19.4" y2="37.81" xlink:href="#Eau_7"/>
    <linearGradient id="Eau_7-4" data-name="Eau 7" x1="22.85" y1="24.01" x2="31.78" y2="34.66" xlink:href="#Eau_7"/>
    <linearGradient id="Eau_7-5" data-name="Eau 7" x1="34.5" y1="24.01" x2="43.43" y2="34.66" xlink:href="#Eau_7"/>
    <linearGradient id="Eau_7-6" data-name="Eau 7" x1="45.48" y1="25.78" x2="52.56" y2="34.22" xlink:href="#Eau_7"/>
  </defs>
  <g id="Calque_187_-_copie" data-name="Calque 187 - copie">
    <g id="Calque_4_-_copie" data-name="Calque 4 - copie">
      <g>
        <path class="cls-3" d="m60.67,5H2.34c-1.29,0-2.34,1.04-2.34,2.33v51.33c0,1.29,1.05,2.33,2.34,2.33h58.33c1.29,0,2.34-1.04,2.34-2.33V7.33c0-1.29-1.05-2.33-2.34-2.33Zm-.66,53H3V19h57v39Z"/>
        <path class="cls-2" d="m39.06,44.44c0,1.86,0,3.71,0,5.57,0,.54.28.81.82.82.93,0,1.86,0,2.78,0s1.83,0,2.75,0c.56,0,.85-.28.86-.84,0-1.84,0-3.69,0-5.53,0-.55-.31-.85-.86-.85-1.84,0-3.69,0-5.53,0-.53,0-.82.3-.82.83Z"/>
        <path class="cls-1" d="m24.9,43.61c-1.84,0-3.69,0-5.53,0-.53,0-.83.29-.83.82,0,1.86,0,3.71,0,5.57,0,.56.29.83.86.83.91,0,1.83,0,2.74,0s1.83,0,2.74,0c.57,0,.85-.27.85-.83,0-1.84,0-3.69,0-5.53,0-.56-.28-.85-.84-.86Z"/>
        <path class="cls-7" d="m35.34,43.61c-1.87,0-3.74,0-5.61,0-.51,0-.79.3-.79.81,0,.93,0,1.86,0,2.79s0,1.86,0,2.78c0,.57.27.83.84.83,1.84,0,3.69,0,5.53,0,.51,0,.83-.28.83-.79.01-1.88.01-3.77,0-5.65,0-.48-.33-.78-.8-.78Z"/>
        <path class="cls-6" d="m27,2.67c0-1.57-.78-2.67-2.34-2.67h-6.33c-1.57,0-2.33,1.1-2.33,2.67v1.33h11v-1.33Z"/>
        <path class="cls-9" d="m14,2.67c0-1.57-.78-2.67-2.34-2.67h-6.33c-1.57,0-2.33,1.1-2.33,2.67v1.33h11v-1.33Z"/>
        <path class="cls-4" d="m9.76,38.31c.4,0,.73-.14.98-.41.25-.27.38-.69.38-1.24v-4.48h5.83v4.48c0,.55.12.96.36,1.23.24.28.57.41.97.41s.73-.14.98-.41c.25-.27.38-.69.38-1.24v-10.51c0-.55-.13-.96-.38-1.23-.25-.27-.58-.4-.99-.4s-.72.14-.97.41c-.25.27-.37.68-.37,1.23v3.82h-5.83v-3.82c0-.55-.13-.96-.38-1.23-.25-.27-.58-.4-.99-.4s-.74.14-.98.41c-.24.27-.36.68-.36,1.23v10.51c0,.55.12.96.36,1.23.24.28.57.41.97.41Z"/>
        <path class="cls-8" d="m22.63,26.97h2.95v9.69c0,.55.13.96.38,1.24.25.27.58.41.98.41s.72-.14.96-.4c.25-.27.37-.68.37-1.24v-9.69h2.95c.46,0,.81-.1,1.04-.3.23-.2.35-.47.35-.81s-.11-.6-.34-.81c-.23-.21-.57-.31-1.04-.31h-8.59c-.44,0-.78.1-1.01.3-.23.2-.35.47-.35.82s.11.6.34.81c.22.2.57.3,1.03.3Z"/>
        <path class="cls-5" d="m34.28,26.97h2.95v9.69c0,.55.13.96.38,1.24.25.27.58.41.98.41s.72-.14.96-.4c.25-.27.37-.68.37-1.24v-9.69h2.95c.46,0,.81-.1,1.04-.3.23-.2.35-.47.35-.81s-.11-.6-.34-.81c-.23-.21-.57-.31-1.04-.31h-8.59c-.44,0-.78.1-1.01.3-.23.2-.35.47-.35.82s.11.6.34.81c.22.2.57.3,1.03.3Z"/>
        <path class="cls-10" d="m47.2,38.31c.39,0,.71-.14.96-.42.25-.28.38-.69.38-1.23v-3.78h2.47c1.66,0,2.9-.35,3.74-1.05.84-.7,1.26-1.73,1.26-3.09,0-.64-.1-1.21-.31-1.72-.21-.51-.51-.94-.91-1.29-.4-.35-.87-.6-1.41-.75-.55-.16-1.34-.24-2.37-.24h-3.47c-.59,0-1.03.13-1.3.38s-.41.68-.41,1.27v10.28c0,.53.12.94.37,1.21.25.28.58.41.98.41Zm1.35-11.54h1.82c1.21,0,2,.2,2.39.59.35.37.52.85.52,1.44,0,.49-.11.89-.34,1.19-.22.3-.55.52-.98.66-.43.13-.96.2-1.6.2h-1.82v-4.08Z"/>
      </g>
    </g>
  </g>
</svg>