<?xml version="1.0" encoding="UTF-8"?>
<svg id="Capa_2" data-name="Capa 2" xmlns="http://www.w3.org/2000/svg" viewBox="0 0 234.09 265.74">
  <defs>
    <style>
      .cls-1 {
        fill: #fff;
      }

      .cls-2 {
        fill: #dab92d;
      }

      .cls-3 {
        fill: #ffd83a;
      }
    </style>
  </defs>
  <g id="shields">
    <g>
      <g>
        <polygon class="cls-2" points="116.31 265.74 20.77 238.99 0 0 234.09 .52 212.23 239.38 116.31 265.74"/>
        <polygon class="cls-3" points="194.01 224.12 212.68 20.01 117 19.8 116.5 245.43 194.01 224.12"/>
      </g>
      <polygon class="cls-1" points="122.21 49.11 122.02 137.74 151.32 137.8 151.66 137.8 148.17 175.8 121.92 182.82 121.85 213.26 175.52 198.52 183.76 108.57 151.39 108.49 151.45 78.48 186.4 78.56 186.49 78.56 189.18 49.26 122.21 49.11"/>
      <polygon class="cls-1" points="81.98 49.02 86.12 177.33 77.11 175.17 75.25 152.28 51.38 152.23 55.38 198.25 109 213.27 109.36 49.08 81.98 49.02"/>
    </g>
  </g>
</svg>